<svg width="119" height="32" viewBox="0 0 119 32" fill="none" xmlns="http://www.w3.org/2000/svg">
<g clip-path="url(#clip0_1407_522)">
<path d="M16.6504 29.9375C14.8692 30.2503 13.0567 30.3441 11.1817 30.5938L5.46281 13.8439V31.3127C3.68163 31.5001 2.05666 31.7501 0.369141 32.0001V0.00012207H5.11927L11.6191 18.1566V0.00012207H16.6504V29.9375ZM26.4942 11.7189C28.4318 11.7189 31.4005 11.6251 33.1817 11.6251V16.625C30.9628 16.625 28.3692 16.625 26.4942 16.7188V24.1564C29.4318 23.969 32.3693 23.7187 35.3379 23.625V28.4372L21.494 29.5312V0.00012207H35.3379V5.00013H26.4942V11.7189ZM53.9316 5.00024H48.7441V28.0002C47.0566 28.0002 45.3691 28.0002 43.7444 28.0625V5.00024H38.5569V0.00012207H53.9318L53.9316 5.00024ZM62.0565 11.3752H68.9004V16.3751H62.0565V27.719H57.1499V0.00012207H71.1191V5.00013H62.0565V11.3752ZM79.2441 23.3439C82.0879 23.4062 84.9627 23.6253 87.7441 23.7813V28.7189C83.2754 28.4374 78.8066 28.1565 74.2442 28.0625V0.00012207H79.2441V23.3439ZM91.9628 29.0626C93.5565 29.1565 95.2441 29.2503 96.869 29.4375V0.00012207H91.9628V29.0626ZM118.775 0.00012207L112.432 15.2189L118.775 32.0001C116.9 31.7501 115.025 31.4064 113.15 31.0938L109.557 21.844L105.901 30.3441C104.088 30.0313 102.338 29.9375 100.526 29.6875L106.963 15.0312L101.151 0.00012207H106.525L109.807 8.40639L113.307 0.00012207L118.775 0.00012207Z" fill="#D81F26"/>
</g>
<defs>
<clipPath id="clip0_1407_522">
<rect width="118.406" height="32" fill="white" transform="translate(0.368164)"/>
</clipPath>
</defs>
</svg>
