<svg width="90" height="32" viewBox="0 0 90 32" fill="none" xmlns="http://www.w3.org/2000/svg">
<g clip-path="url(#clip0_1823_734)">
<path d="M0.630859 0H14.6774C16.3747 0 17.8525 0.204847 19.1109 0.614541C20.3985 0.994973 21.452 1.55098 22.2714 2.28258C23.9394 3.77503 24.7734 5.73571 24.7734 8.16461C24.7734 9.77412 24.3198 11.1056 23.4126 12.1591C22.5347 13.1834 21.3496 13.9442 19.8571 14.4417V14.5734C21.6129 15.0709 23.0176 16.0073 24.0711 17.3827C25.1538 18.7581 25.6952 20.4115 25.6952 22.3429C25.6952 23.8354 25.4611 25.1084 24.9929 26.1619C24.5539 27.1861 23.8662 28.0933 22.9298 28.8834C22.0226 29.6735 20.896 30.2881 19.5498 30.727C18.2037 31.166 16.6966 31.3855 15.0286 31.3855H0.630859V0ZM6.99571 26.118H14.3263C15.8772 26.118 17.0771 25.7375 17.9257 24.9767C18.8036 24.1866 19.2426 23.1477 19.2426 21.8601C19.2426 20.3676 18.7597 19.241 17.794 18.4801C16.8283 17.7193 15.6139 17.3388 14.1507 17.3388H6.99571V26.118ZM13.8873 12.642C15.292 12.642 16.4186 12.3201 17.2673 11.6763C18.1159 11.0325 18.5402 10.096 18.5402 8.86694C18.5402 7.69639 18.1305 6.78921 17.3112 6.14541C16.521 5.5016 15.4237 5.17969 14.019 5.17969H6.99571V12.642H13.8873Z" fill="white"/>
<path d="M34.7054 12.4665H34.8371C35.5101 11.1789 36.271 10.2132 37.1196 9.56934C37.9683 8.92554 39.051 8.60364 40.3679 8.60364C40.9824 8.60364 41.4507 8.66217 41.7726 8.77922V14.0028H41.6409C39.6802 13.798 38.0707 14.2223 36.8124 15.2758C35.554 16.3293 34.9249 18.0412 34.9249 20.4116V31.3855H28.9551V8.86701H34.7054V12.4665Z" fill="white"/>
<path d="M58.6087 31.3856V28.7518H58.477C57.7161 29.7761 56.8382 30.5808 55.8433 31.1661C54.8776 31.7221 53.6046 32.0001 52.0243 32.0001C49.5077 32.0001 47.5763 31.2685 46.2301 29.8053C44.884 28.3421 44.2109 26.3668 44.2109 23.8794V8.86707H50.1368V22.8698C50.1368 24.1867 50.4295 25.1963 51.0147 25.8986C51.6293 26.6009 52.5804 26.9521 53.868 26.9521C55.2726 26.9521 56.37 26.4839 57.1601 25.5475C57.9795 24.5817 58.3892 23.3527 58.3892 21.8602V8.86707H64.359V31.3856H58.6087Z" fill="white"/>
<path d="M66.9023 8.86694H70.0189V1.84363H75.857V8.86694H79.7198V12.8176H75.857V24.7572C75.857 25.6059 76.0619 26.1911 76.4716 26.513C76.8813 26.8349 77.4226 26.9959 78.0957 26.9959H79.237C79.4418 26.9959 79.6467 26.9813 79.8515 26.952V31.3416C79.5589 31.3708 79.237 31.3855 78.8858 31.3855C78.5639 31.4147 78.1689 31.4293 77.7006 31.4293C77.2324 31.4293 76.7057 31.4293 76.1204 31.4293C75.3888 31.4293 74.6572 31.3562 73.9256 31.2099C73.2233 31.0343 72.5795 30.7417 71.9942 30.332C71.4089 29.9223 70.9261 29.3663 70.5457 28.6639C70.1945 27.9616 70.0189 27.0837 70.0189 26.0302V12.8176H66.9023V8.86694Z" fill="white"/>
<path d="M82.873 25.0206H89.2818V31.3855H82.873V25.0206Z" fill="white"/>
</g>
<defs>
<clipPath id="clip0_1823_734">
<rect width="88.6505" height="32" fill="white" transform="translate(0.630859)"/>
</clipPath>
</defs>
</svg>
