<svg width="120" height="32" viewBox="0 0 120 32" fill="none" xmlns="http://www.w3.org/2000/svg">
<g clip-path="url(#clip0_1823_713)">
<path d="M17.0249 22.3203H9.19647V9.92821H17.0249C20.5161 9.92821 24.0952 11.6838 24.0952 16.1243C24.0952 20.5641 20.5161 22.3203 17.0249 22.3203ZM16.1365 3.5141C9.2093 3.5141 3.59375 9.12967 3.59375 16.0576C3.59375 22.9848 9.2093 28.6003 16.1365 28.6003C23.0638 28.6003 28.6793 22.9848 28.6793 16.0576C28.6793 9.12967 23.0638 3.5141 16.1365 3.5141Z" fill="white"/>
<path d="M16.5497 13.5362H13.0977V18.713H16.5497C19.0576 18.713 19.9441 17.672 19.9441 16.1249C19.9441 14.5772 19.0512 13.5362 16.5497 13.5362Z" fill="white"/>
<path d="M43.8285 16.4726L41.7548 10.8102H38.9358L36.8621 16.4726L35.2002 10.8102H31.4961L34.9834 21.7289H38.1238L40.3264 16.443L42.5675 21.7289H45.7078L49.1945 10.8102H45.491L43.8285 16.4726Z" fill="#111111" fill-opacity="0.0666667"/>
<path d="M45.7069 21.7285H42.5666L40.3255 16.4433L38.1229 21.7285H34.9819L31.4952 10.8104H35.1987L36.8612 16.4721L38.9349 10.8104H41.7533L43.8276 16.4721L45.4895 10.8104H49.1936L45.7069 21.7285ZM16.136 28.6006C9.20873 28.6006 3.59318 22.9844 3.59318 16.0571C3.59318 9.12991 9.20873 3.51436 16.136 3.51436C23.0632 3.51436 28.6788 9.12991 28.6788 16.0571C28.6788 22.9844 23.0632 28.6006 16.136 28.6006ZM39.872 -0.00122833C35.1275 -0.00122833 30.866 2.06349 27.936 5.34303C25.006 2.06349 20.7439 -0.00122833 16 -0.00122833C7.16328 -0.00122833 0 7.16206 0 15.9988C0 24.8355 7.16328 31.9988 16 31.9988C20.7439 31.9988 25.006 29.9341 27.936 26.6539C30.866 29.9341 35.1275 31.9988 39.872 31.9988C48.7081 31.9988 55.8714 24.8355 55.8714 15.9988C55.8714 7.16206 48.7081 -0.00122833 39.872 -0.00122833Z" fill="white"/>
<path d="M16.5478 18.7128H13.0957V13.5359H16.5478C19.0493 13.5359 19.9421 14.577 19.9421 16.1247C19.9421 17.6718 19.0557 18.7128 16.5478 18.7128ZM17.0237 9.928H9.19531V22.3201H17.0237C20.5149 22.3201 24.094 20.5645 24.094 16.124C24.094 11.6835 20.5149 9.928 17.0237 9.928Z" fill="#111111"/>
<path fill-rule="evenodd" clip-rule="evenodd" d="M83.6564 8.00273H85.5005V14.7863H83.9714L83.8386 14.2783C83.2652 14.6099 82.6122 14.8915 81.9997 14.8915C80.3173 14.8915 79.4841 14.0647 79.4841 12.0436V8.00273H81.2903V11.7531C81.2903 12.8948 81.7136 13.2071 82.5955 13.2071C82.8746 13.2071 83.3062 13.0583 83.6564 12.8569V8.00273ZM68.9912 10.2316C68.9912 11.8313 68.1535 12.8832 66.3159 12.8832H64.9824V7.57942H66.3781C68.2286 7.57942 68.9912 8.44401 68.9912 10.2316ZM71.0457 10.2316C71.0457 6.90013 69.1683 5.67699 66.5654 5.67699H62.9434V14.7863H66.4352C68.9309 14.7863 71.0457 13.4329 71.0457 10.2316ZM103.811 9.85575C103.368 9.53761 102.925 9.37665 102.413 9.37665C101.469 9.37665 100.945 10.3054 100.917 11.2515C100.887 12.2328 101.391 13.2328 102.512 13.2328C102.981 13.2328 103.374 13.1424 103.905 12.7415L104.849 13.8729C104.155 14.5021 103.37 14.8818 102.459 14.8818C100.157 14.8818 99.0644 13.0404 99.0997 11.2297C99.1337 9.47606 100.224 7.75194 102.304 7.75194C103.25 7.75194 104.082 8.06108 104.659 8.61975L103.811 9.85575ZM107.677 14.7375H105.857V5.38001H107.677V8.15733C108.132 7.95977 108.822 7.75194 109.332 7.75194C111.015 7.75194 111.946 8.57872 111.946 10.5998V14.7375H110.117V10.8904C110.117 9.74866 109.668 9.43627 108.786 9.43627C108.507 9.43627 108.027 9.58508 107.677 9.78712V14.7375ZM75.2854 7.75449C73.5138 7.75449 72.2765 9.22783 72.2971 11.3265C72.3195 13.4906 73.4567 14.8857 75.5612 14.8857C76.4932 14.8857 77.472 14.481 78.0242 13.7773L77.0999 12.8646C77.0999 12.8646 76.5041 13.3085 75.6997 13.3406C74.728 13.3797 74.1379 12.8082 74.0622 11.8692H78.0762C78.5021 9.08801 77.2263 7.75449 75.2854 7.75449ZM76.5387 10.6338H74.0455C74.0911 9.88591 74.5535 9.2291 75.2674 9.2291C76.5201 9.2291 76.5348 10.2913 76.5387 10.6338ZM91.0461 12.964C91.0461 12.964 90.6921 13.1314 90.3669 13.1314C89.9378 13.1314 89.703 13.0102 89.703 12.3599V9.37215H91.3425V7.97067H89.703V6.3357H88.2361L87.9802 7.97067H86.7628V9.37215H87.9314L87.9077 12.7928C87.9077 13.9903 88.4529 14.8485 89.8133 14.8485C90.5195 14.8485 91.0083 14.5695 91.5548 14.1795L91.0461 12.964ZM116.253 7.75449C114.481 7.75449 113.243 9.22783 113.265 11.3265C113.287 13.4906 114.424 14.8857 116.529 14.8857C117.461 14.8857 118.439 14.481 118.991 13.7773L118.067 12.8646C118.067 12.8646 117.472 13.3085 116.667 13.3406C115.696 13.3797 115.106 12.8082 115.03 11.8692H119.044C119.47 9.08801 118.193 7.75449 116.253 7.75449ZM117.506 10.6338H115.012C115.058 9.88591 115.52 9.2291 116.235 9.2291C117.487 9.2291 117.502 10.2913 117.506 10.6338ZM97.3954 9.80572L97.9413 8.42604C97.9413 8.42604 96.7303 7.74297 95.4084 7.76349C93.7471 7.78851 92.7241 8.45045 92.6971 9.69928C92.6804 10.4683 93.0473 11.1277 93.9376 11.5959C94.6027 11.9461 95.2224 12.1507 95.833 12.3797C96.1447 12.4971 96.3608 12.6722 96.2967 12.9653C96.2441 13.2103 95.9747 13.3085 95.774 13.3374C94.9549 13.4541 93.9658 13.1411 93.1166 12.7793L92.5592 14.0872C92.5592 14.0872 93.7766 14.8806 95.3429 14.8806C96.5732 14.8806 98.0715 14.5137 98.1831 12.9852C98.2543 12.0199 97.8329 11.3971 96.8182 10.9776C96.4019 10.8051 95.0543 10.299 95.0543 10.299C94.6438 10.1495 94.504 9.92117 94.554 9.67551C94.6342 9.27912 95.2313 9.29006 95.6957 9.32662C96.6341 9.40038 97.3954 9.80572 97.3954 9.80572Z" fill="white"/>
<path fill-rule="evenodd" clip-rule="evenodd" d="M86.7222 17.3869H84.9018V26.7451H86.7222V17.3869ZM73.3244 18.238H71.3578L70.5233 22.1827C70.44 22.6124 70.2937 23.8279 70.252 24.2051C70.1827 23.8279 69.9499 22.6253 69.839 22.1827L68.7466 18.238H66.9141L65.8359 22.1827C65.7249 22.6253 65.4928 23.8279 65.4228 24.2051C65.3818 23.8279 65.2112 22.6253 65.1278 22.1827L64.3164 18.238H62.3223L64.3145 26.7932H66.2214L67.451 22.2623C67.5902 21.7286 67.7473 20.8588 67.789 20.5202C67.8442 20.8588 68.0007 21.7164 68.1399 22.2623L69.3425 26.7932H71.3328L73.3244 18.238ZM83.0911 17.3869H81.2715V26.7451H83.0911V17.3869ZM76.9426 19.7563C75.1704 19.7563 73.9337 21.2289 73.9549 23.3283C73.9767 25.4924 75.1146 26.8868 77.2184 26.8868C78.1504 26.8868 79.1291 26.4827 79.6814 25.7785L78.7571 24.8664C78.7571 24.8664 78.1619 25.3102 77.3569 25.3423C76.3852 25.3808 75.7951 24.8093 75.72 23.8709H79.7333C80.1599 21.0898 78.8835 19.7563 76.9426 19.7563ZM78.1959 22.6355H75.7027C75.7483 21.8876 76.2107 21.2302 76.9246 21.2302C78.1773 21.2302 78.192 22.293 78.1959 22.6355ZM91.144 19.7563C89.3725 19.7563 88.1345 21.2289 88.1564 23.3283C88.1782 25.4924 89.316 26.8868 91.4192 26.8868C92.3518 26.8868 93.3306 26.4827 93.8822 25.7785L92.958 24.8664C92.958 24.8664 92.3627 25.3102 91.5584 25.3423C90.5867 25.3808 89.9966 24.8093 89.9202 23.8709H93.9348C94.3614 21.0898 93.0843 19.7563 91.144 19.7563ZM92.3974 22.6355H89.9036C89.9491 21.8876 90.4116 21.2302 91.1261 21.2302C92.3781 21.2302 92.3935 22.293 92.3974 22.6355Z" fill="white"/>
</g>
<defs>
<clipPath id="clip0_1823_713">
<rect width="119.125" height="32" fill="white"/>
</clipPath>
</defs>
</svg>
