<svg width="154" height="32" viewBox="0 0 154 32" fill="none" xmlns="http://www.w3.org/2000/svg">
<g clip-path="url(#clip0_1823_726)">
<path d="M1.86914 2.12337C5.35837 2.12952 8.84145 2.06183 12.3307 2.14183C16.4599 2.38183 20.1215 5.17568 22.0907 8.72645C24.0907 12.4926 25.8384 16.388 27.863 20.1418C28.5276 21.4649 29.8445 22.388 31.3461 22.4249C31.2907 15.6495 31.3215 8.87414 31.3276 2.09875C34.3861 2.12337 37.4445 2.11106 40.4968 2.11722C40.4845 5.07106 40.503 8.01875 40.4599 10.9726C38.3368 11.7849 36.5584 13.668 36.5091 16.0372C36.2138 18.6218 38.1215 20.9111 40.4661 21.7357C40.5092 24.7018 40.4722 27.668 40.503 30.6341C37.463 30.6588 34.423 30.6341 31.3891 30.6588C27.8691 30.8372 24.3922 29.188 22.1215 26.5357C19.6476 23.4957 18.3615 19.7111 16.4599 16.3203C15.1738 13.9634 14.263 10.4064 11.0138 10.2526C11.0199 17.0403 10.983 23.828 11.0384 30.6157C7.98606 30.6649 4.9276 30.6526 1.87529 30.628C1.89991 21.1264 1.90606 11.6249 1.86914 2.12337Z" fill="white"/>
<path d="M43.168 2.13561C69.0326 2.11714 94.8972 2.06176 120.762 2.16022C124.614 9.17561 128.565 16.1295 132.393 23.1571C136.214 16.1971 139.728 9.06484 143.525 2.09253C146.768 2.15407 150.011 2.04945 153.26 2.16638C152.719 2.96022 152.171 3.74176 151.716 4.59099C147.15 13.2864 142.534 21.9633 137.937 30.6464C134.233 30.6464 130.528 30.6402 126.823 30.6464C122.817 23.3725 118.713 16.1479 114.694 8.88022C110.614 8.83714 106.534 8.87407 102.454 8.86176C102.448 16.1233 102.485 23.3848 102.436 30.6402C99.5064 30.6464 96.5711 30.6525 93.6418 30.6341C93.6418 23.3725 93.6787 16.1048 93.6234 8.83714C89.1249 8.88637 84.6264 8.84945 80.1341 8.86176C80.9526 11.9818 80.8787 15.2248 80.7741 18.4187C80.6387 21.6741 79.771 25.1202 77.3526 27.4464C75.0326 29.8402 71.5495 30.6648 68.3126 30.6525C59.9434 30.6279 51.5741 30.6771 43.2049 30.6218C43.2295 27.6556 43.1926 24.6895 43.2418 21.7295C45.2172 20.9602 46.9526 19.3048 47.1372 17.1018C47.568 14.4064 45.7034 11.8956 43.2357 10.991C43.1926 8.03714 43.2603 5.0833 43.168 2.13561ZM52.0849 8.91714C52.1587 13.8771 52.1095 18.8433 52.1157 23.8033C57.1249 23.871 62.1341 23.8279 67.1495 23.8341C69.1187 23.9202 71.4387 22.8371 71.7095 20.6771C71.8695 17.9079 71.8264 15.1202 71.7341 12.3448C71.5434 10.0925 69.1987 8.8433 67.131 8.88637C62.1157 8.86176 57.1003 8.80022 52.0849 8.91714Z" fill="white"/>
<path d="M36.5088 16.0371C36.558 13.6678 38.3365 11.7848 40.4595 10.9725C41.3826 10.874 42.3119 10.8801 43.2349 10.9909C45.7026 11.8955 47.5672 14.4063 47.1365 17.1017C46.9519 19.3048 45.2165 20.9601 43.2411 21.7294C42.318 21.8217 41.3949 21.8278 40.4657 21.7355C38.1211 20.9109 36.2134 18.6217 36.5088 16.0371Z" fill="#EE0000"/>
</g>
<defs>
<clipPath id="clip0_1823_726">
<rect width="153.846" height="32" fill="white" transform="translate(0.0175781)"/>
</clipPath>
</defs>
</svg>
