<svg width="107" height="32" viewBox="0 0 107 32" fill="none" xmlns="http://www.w3.org/2000/svg">
<g clip-path="url(#clip0_1407_505)">
<path d="M16.5214 0.0528564C7.71203 0.0528564 0.570312 7.19438 0.570312 16.0037C0.570312 24.8134 7.71203 31.9544 16.5214 31.9544C25.3316 31.9544 32.4726 24.8134 32.4726 16.0037C32.4726 7.19495 25.3316 0.0536183 16.5212 0.0536183L16.5214 0.0528564ZM23.8364 23.0586C23.5507 23.5271 22.9374 23.6757 22.4688 23.3881C18.7236 21.1005 14.009 20.5824 8.4566 21.851C7.92155 21.9729 7.38822 21.6376 7.26631 21.1024C7.14384 20.5671 7.47774 20.0338 8.01412 19.9119C14.0903 18.5237 19.3023 19.1214 23.5069 21.691C23.9755 21.9786 24.124 22.59 23.8364 23.0586ZM25.7888 18.7153C25.4288 19.3005 24.6631 19.4852 24.0783 19.1252C19.7907 16.4898 13.2549 15.7266 8.18346 17.266C7.52574 17.4647 6.83107 17.094 6.63146 16.4374C6.43336 15.7797 6.80422 15.0864 7.46079 14.8864C13.2537 13.1287 20.4555 13.9801 25.3793 17.0058C25.964 17.3658 26.1488 18.1313 25.7888 18.7153ZM25.9564 14.1927C20.8155 11.1391 12.3336 10.8584 7.42517 12.3481C6.63698 12.5871 5.80346 12.1422 5.5646 11.354C5.32574 10.5654 5.77031 9.73248 6.55907 9.49286C12.1936 7.78238 21.5602 8.11286 27.4791 11.6266C28.1896 12.0473 28.4219 12.963 28.001 13.671C27.5819 14.3799 26.6638 14.6136 25.9572 14.1927H25.9564ZM43.9678 14.7778C41.2135 14.121 40.724 13.6601 40.724 12.6915C40.724 11.7765 41.585 11.1607 42.8669 11.1607C44.1088 11.1607 45.3393 11.6283 46.6307 12.591C46.6688 12.6201 46.7183 12.6317 46.7659 12.6241C46.8155 12.6169 46.8574 12.5904 46.8859 12.5506L48.2307 10.655C48.2859 10.5769 48.2707 10.4692 48.1964 10.4096C46.6593 9.17667 44.9297 8.57724 42.9069 8.57724C39.9336 8.57724 37.8555 10.3618 37.8555 12.9151C37.8555 15.6532 39.6478 16.6228 42.745 17.3711C45.3793 17.9782 45.825 18.4868 45.825 19.3957C45.825 20.4033 44.9259 21.03 43.4783 21.03C41.8707 21.03 40.5583 20.4871 39.0916 19.2186C39.0555 19.1862 39.0059 19.1729 38.9602 19.1748C38.9107 19.1786 38.8669 19.2014 38.8364 19.2376L37.3278 21.0319C37.265 21.1081 37.2726 21.2186 37.345 21.2833C39.0516 22.8071 41.1507 23.611 43.4174 23.611C46.6212 23.611 48.6916 21.8605 48.6916 19.15C48.6974 16.863 47.3278 15.5963 43.9735 14.7803L43.9678 14.7778ZM55.9412 12.0616C54.5526 12.0616 53.4136 12.6087 52.4726 13.7296V12.4679C52.4726 12.3683 52.3926 12.2871 52.2936 12.2871H49.8269C49.7278 12.2871 49.6478 12.3683 49.6478 12.4679V26.4871C49.6478 26.5862 49.7278 26.6681 49.8269 26.6681H52.2936C52.3926 26.6681 52.4726 26.5862 52.4726 26.4871V22.0624C53.4136 23.1157 54.5526 23.6319 55.9412 23.6319C58.5221 23.6319 61.1355 21.6452 61.1355 17.8473C61.1393 14.0487 58.5259 12.0614 55.9431 12.0614L55.9412 12.0616ZM58.2669 17.8473C58.2669 19.7805 57.0764 21.131 55.3697 21.131C53.684 21.131 52.4117 19.7195 52.4117 17.8473C52.4117 15.975 53.684 14.5639 55.3697 14.5639C57.0478 14.5637 58.2669 15.9445 58.2669 17.8473ZM67.8307 12.0616C64.5069 12.0616 61.9031 14.6209 61.9031 17.8887C61.9031 21.1214 64.4897 23.6529 67.7907 23.6529C71.1259 23.6529 73.7374 21.1024 73.7374 17.8473C73.7374 14.6033 71.1431 12.062 67.8307 12.062V12.0616ZM67.8307 21.15C66.0631 21.15 64.7297 19.729 64.7297 17.8464C64.7297 15.9551 66.0174 14.5828 67.7907 14.5828C69.5697 14.5828 70.9107 16.0031 70.9107 17.8877C70.9107 19.7786 69.6155 21.15 67.8307 21.15ZM80.8345 12.2871H78.1202V9.51267C78.1202 9.41324 78.0402 9.33209 77.9412 9.33209H75.4745C75.3755 9.33209 75.2936 9.41324 75.2936 9.51267V12.2871H74.1088C74.0097 12.2871 73.9297 12.3683 73.9297 12.4679V14.5873C73.9297 14.6868 74.0097 14.7681 74.1088 14.7681H75.2936V20.2529C75.2936 22.4681 76.3964 23.5919 78.5736 23.5919C79.4574 23.5919 80.1907 23.409 80.8821 23.0167C80.9393 22.9862 80.9736 22.9252 80.9736 22.8605V20.8414C80.9736 20.7805 80.9412 20.7214 80.8878 20.689C80.8345 20.6548 80.7678 20.6529 80.7126 20.6814C80.2383 20.9195 79.7793 21.03 79.265 21.03C78.4745 21.03 78.1202 20.67 78.1202 19.8662V14.769H80.8345C80.9336 14.769 81.0136 14.6879 81.0136 14.5883V12.469C81.0174 12.3694 80.9374 12.2883 80.8364 12.2883L80.8345 12.2871ZM90.2897 12.298V11.9572C90.2897 10.9548 90.6745 10.5077 91.5355 10.5077C92.0497 10.5077 92.4631 10.6098 92.9259 10.7641C92.9831 10.782 93.0421 10.773 93.0878 10.739C93.1355 10.7049 93.1621 10.6502 93.1621 10.5923V8.51419C93.1621 8.43476 93.1126 8.36448 93.0345 8.34105C92.5469 8.19571 91.9221 8.04657 90.985 8.04657C88.7088 8.04657 87.5031 9.32924 87.5031 11.7546V12.2765H86.3183C86.2193 12.2765 86.1374 12.3576 86.1374 12.457V14.5873C86.1374 14.6868 86.2193 14.7681 86.3183 14.7681H87.5031V23.2262C87.5031 23.3271 87.585 23.4071 87.684 23.4071H90.1488C90.2497 23.4071 90.3297 23.3271 90.3297 23.2262V14.7687H92.6326L96.1602 23.2262C95.7602 24.1138 95.3659 24.291 94.8288 24.291C94.3945 24.291 93.9355 24.1614 93.4688 23.9043C93.425 23.8814 93.3716 23.8776 93.3259 23.891C93.2783 23.9081 93.2383 23.9424 93.2193 23.9881L92.3831 25.8224C92.3431 25.91 92.3774 26.011 92.4612 26.0567C93.3336 26.529 94.1202 26.731 95.0936 26.731C96.9145 26.731 97.9221 25.8814 98.8078 23.5995L103.086 12.5449C103.109 12.4892 103.101 12.4264 103.067 12.377C103.035 12.3281 102.979 12.2986 102.92 12.2986H100.353C100.275 12.2986 100.206 12.3475 100.181 12.4197L97.5507 19.931L94.6707 12.4148C94.644 12.3449 94.5774 12.2986 94.5031 12.2986H90.2897V12.298ZM84.8078 12.2871H82.3412C82.2421 12.2871 82.1602 12.3683 82.1602 12.4679V23.2262C82.1602 23.3271 82.2421 23.4071 82.3412 23.4071H84.8078C84.9069 23.4071 84.9888 23.3271 84.9888 23.2262V12.4687C84.9888 12.369 84.9088 12.2879 84.8078 12.2879V12.2871ZM83.5888 7.38828C82.6117 7.38828 81.8193 8.17914 81.8193 9.15609C81.8193 10.1336 82.6117 10.9254 83.5888 10.9254C84.5659 10.9254 85.3564 10.1336 85.3564 9.15609C85.3564 8.17933 84.564 7.38828 83.5888 7.38828ZM105.193 15.7464C104.217 15.7464 103.457 14.9626 103.457 14.0108C103.457 13.059 104.227 12.2662 105.202 12.2662C106.177 12.2662 106.937 13.0498 106.937 14.0009C106.937 14.9527 106.168 15.7464 105.193 15.7464ZM105.202 12.4388C104.313 12.4388 103.64 13.1454 103.64 14.0108C103.64 14.8757 104.309 15.5729 105.193 15.5729C106.082 15.5729 106.755 14.8668 106.755 14.0009C106.755 13.1359 106.086 12.4388 105.202 12.4388ZM105.587 14.1793L106.078 14.8666H105.663L105.221 14.2361H104.842V14.8666H104.495V13.0449H105.307C105.732 13.0449 106.01 13.2614 106.01 13.626C106.012 13.9247 105.838 14.1071 105.589 14.1793H105.587ZM105.294 13.3574H104.842V13.9336H105.294C105.518 13.9336 105.654 13.8233 105.654 13.6452C105.654 13.4578 105.518 13.3574 105.294 13.3574Z" fill="#1ED760"/>
</g>
<defs>
<clipPath id="clip0_1407_505">
<rect width="106.476" height="32" fill="white" transform="translate(0.523438)"/>
</clipPath>
</defs>
</svg>
