<svg width="113" height="32" viewBox="0 0 113 32" fill="none" xmlns="http://www.w3.org/2000/svg">
<g clip-path="url(#clip0_1823_732)">
<path d="M60.9411 20.6823C60.9411 24.1598 56.6137 23.9534 56.6137 23.9534H52.2864V17.6698H56.6137C61.067 17.64 60.9411 20.6823 60.9411 20.6823ZM52.2864 8.08692H55.5838C59.0079 8.2678 58.8787 10.8171 58.8787 10.8171C58.8787 13.9852 55.0925 14.0369 55.0925 14.0369H52.2864V8.08692ZM60.1406 15.2725C60.1406 15.2725 63.1026 14.0104 63.0762 10.6626C63.0762 10.6626 63.5267 5.17615 56.2575 4.50696H48.1915V27.5075H57.4371C57.4371 27.5075 65.1623 27.5306 65.1623 21.0178C65.1621 21.0178 65.3448 16.5858 60.1406 15.2725ZM39.2659 0.00012207H73.2256V32.0016H39.2659V0.00012207ZM21.7802 20.6823C21.7802 24.1598 17.4528 23.9534 17.4528 23.9534H13.1252V17.6698H17.4528C21.9066 17.64 21.7802 20.6823 21.7802 20.6823ZM13.1252 8.08692H16.4233C19.8476 8.2678 19.718 10.8171 19.718 10.8171C19.718 13.9852 15.932 14.0369 15.932 14.0369H13.1252V8.08692ZM20.9801 15.2725C20.9801 15.2725 23.9425 14.0104 23.9159 10.6626C23.9159 10.6626 24.3661 5.17615 17.0969 4.50696H9.03055V27.5075H18.2768C18.2768 27.5075 26.0018 27.5306 26.0018 21.0178C26.0018 21.0178 26.1838 16.5858 20.9801 15.2725ZM0.105469 0.00012207H34.0651V32.0016H0.105469V0.00012207ZM105.459 6.15591V10.4053C105.459 10.4053 101.311 7.85629 96.7272 7.80498C96.7272 7.80498 88.1758 7.63712 87.7903 16.002C87.7903 16.002 87.4814 23.6947 96.6241 24.1331C96.6241 24.1331 100.46 24.5951 105.664 21.2765V25.6774C105.664 25.6774 98.6834 29.8249 90.5965 26.6304C90.5965 26.6304 83.7985 24.148 83.5396 16.002C83.5396 16.002 83.2569 7.62376 92.3233 4.84256C92.3233 4.84256 94.7444 3.91569 99.0953 4.32764C99.0954 4.32753 101.696 4.58477 105.459 6.15591ZM78.4265 32.0016H112.386V0.00012207H78.4265V32.0016Z" fill="white"/>
</g>
<defs>
<clipPath id="clip0_1823_732">
<rect width="112.281" height="32" fill="white" transform="translate(0.105469)"/>
</clipPath>
</defs>
</svg>
